<mxfile host="app.diagrams.net" modified="2021-12-16T10:29:36.035Z" agent="5.0 (Windows NT 10.0; Win64; x64) AppleWebKit/537.36 (KHTML, like Gecko) Chrome/96.0.4664.110 Safari/537.36" etag="f8ezwOPX_n8MIjV4Jvvs" version="15.9.6" type="github">
  <diagram id="XxQJxf_ujhqQxp69qmOt" name="Page-1">
    <mxGraphModel dx="1108" dy="450" grid="1" gridSize="10" guides="1" tooltips="1" connect="1" arrows="1" fold="1" page="1" pageScale="1" pageWidth="827" pageHeight="1169" math="0" shadow="0">
      <root>
        <mxCell id="0" />
        <mxCell id="1" parent="0" />
        <mxCell id="BpsWuVUO4pD3DxGXrb-u-3" value="" style="edgeStyle=orthogonalEdgeStyle;rounded=0;orthogonalLoop=1;jettySize=auto;html=1;" parent="1" source="BpsWuVUO4pD3DxGXrb-u-1" target="BpsWuVUO4pD3DxGXrb-u-2" edge="1">
          <mxGeometry relative="1" as="geometry" />
        </mxCell>
        <mxCell id="BpsWuVUO4pD3DxGXrb-u-1" value="void Display(uint8_t setting, uint16_t data[], uint8_t FULL)" style="rounded=1;whiteSpace=wrap;html=1;" parent="1" vertex="1">
          <mxGeometry x="180" y="60" width="120" height="60" as="geometry" />
        </mxCell>
        <mxCell id="BpsWuVUO4pD3DxGXrb-u-8" value="" style="edgeStyle=orthogonalEdgeStyle;rounded=0;orthogonalLoop=1;jettySize=auto;html=1;" parent="1" source="BpsWuVUO4pD3DxGXrb-u-2" target="BpsWuVUO4pD3DxGXrb-u-5" edge="1">
          <mxGeometry relative="1" as="geometry" />
        </mxCell>
        <mxCell id="BpsWuVUO4pD3DxGXrb-u-2" value="Define lcd_string[]&lt;br&gt;and go to 0,1" style="rounded=0;whiteSpace=wrap;html=1;" parent="1" vertex="1">
          <mxGeometry x="180" y="150" width="120" height="60" as="geometry" />
        </mxCell>
        <mxCell id="BpsWuVUO4pD3DxGXrb-u-14" value="" style="edgeStyle=orthogonalEdgeStyle;rounded=0;orthogonalLoop=1;jettySize=auto;html=1;" parent="1" source="BpsWuVUO4pD3DxGXrb-u-4" target="BpsWuVUO4pD3DxGXrb-u-10" edge="1">
          <mxGeometry relative="1" as="geometry" />
        </mxCell>
        <mxCell id="GcYLmxMrVuPvOlCH0uSK-2" value="" style="edgeStyle=orthogonalEdgeStyle;rounded=0;orthogonalLoop=1;jettySize=auto;html=1;" edge="1" parent="1" source="BpsWuVUO4pD3DxGXrb-u-4" target="GcYLmxMrVuPvOlCH0uSK-1">
          <mxGeometry relative="1" as="geometry" />
        </mxCell>
        <mxCell id="BpsWuVUO4pD3DxGXrb-u-4" value="case 0&amp;nbsp;" style="rhombus;whiteSpace=wrap;html=1;" parent="1" vertex="1">
          <mxGeometry x="200" y="330" width="80" height="80" as="geometry" />
        </mxCell>
        <mxCell id="BpsWuVUO4pD3DxGXrb-u-7" value="" style="edgeStyle=orthogonalEdgeStyle;rounded=0;orthogonalLoop=1;jettySize=auto;html=1;" parent="1" source="BpsWuVUO4pD3DxGXrb-u-5" target="BpsWuVUO4pD3DxGXrb-u-4" edge="1">
          <mxGeometry relative="1" as="geometry" />
        </mxCell>
        <mxCell id="BpsWuVUO4pD3DxGXrb-u-5" value="&lt;span&gt;switch (setting)&lt;/span&gt;" style="rounded=0;whiteSpace=wrap;html=1;" parent="1" vertex="1">
          <mxGeometry x="180" y="240" width="120" height="60" as="geometry" />
        </mxCell>
        <mxCell id="BpsWuVUO4pD3DxGXrb-u-16" value="" style="edgeStyle=orthogonalEdgeStyle;rounded=0;orthogonalLoop=1;jettySize=auto;html=1;" parent="1" source="BpsWuVUO4pD3DxGXrb-u-9" target="BpsWuVUO4pD3DxGXrb-u-11" edge="1">
          <mxGeometry relative="1" as="geometry" />
        </mxCell>
        <mxCell id="GcYLmxMrVuPvOlCH0uSK-9" value="" style="edgeStyle=orthogonalEdgeStyle;rounded=0;orthogonalLoop=1;jettySize=auto;html=1;" edge="1" parent="1" source="BpsWuVUO4pD3DxGXrb-u-9" target="GcYLmxMrVuPvOlCH0uSK-4">
          <mxGeometry relative="1" as="geometry" />
        </mxCell>
        <mxCell id="BpsWuVUO4pD3DxGXrb-u-9" value="case 2" style="rhombus;whiteSpace=wrap;html=1;" parent="1" vertex="1">
          <mxGeometry x="200" y="560" width="80" height="80" as="geometry" />
        </mxCell>
        <mxCell id="BpsWuVUO4pD3DxGXrb-u-15" style="edgeStyle=orthogonalEdgeStyle;rounded=0;orthogonalLoop=1;jettySize=auto;html=1;exitX=0.5;exitY=1;exitDx=0;exitDy=0;entryX=0.5;entryY=0;entryDx=0;entryDy=0;" parent="1" source="BpsWuVUO4pD3DxGXrb-u-10" target="BpsWuVUO4pD3DxGXrb-u-9" edge="1">
          <mxGeometry relative="1" as="geometry" />
        </mxCell>
        <mxCell id="GcYLmxMrVuPvOlCH0uSK-10" value="" style="edgeStyle=orthogonalEdgeStyle;rounded=0;orthogonalLoop=1;jettySize=auto;html=1;" edge="1" parent="1" source="BpsWuVUO4pD3DxGXrb-u-10" target="GcYLmxMrVuPvOlCH0uSK-3">
          <mxGeometry relative="1" as="geometry" />
        </mxCell>
        <mxCell id="BpsWuVUO4pD3DxGXrb-u-10" value="case 1&amp;nbsp;" style="rhombus;whiteSpace=wrap;html=1;" parent="1" vertex="1">
          <mxGeometry x="200" y="440" width="80" height="80" as="geometry" />
        </mxCell>
        <mxCell id="BpsWuVUO4pD3DxGXrb-u-17" value="" style="edgeStyle=orthogonalEdgeStyle;rounded=0;orthogonalLoop=1;jettySize=auto;html=1;" parent="1" source="BpsWuVUO4pD3DxGXrb-u-11" target="BpsWuVUO4pD3DxGXrb-u-12" edge="1">
          <mxGeometry relative="1" as="geometry" />
        </mxCell>
        <mxCell id="GcYLmxMrVuPvOlCH0uSK-8" value="" style="edgeStyle=orthogonalEdgeStyle;rounded=0;orthogonalLoop=1;jettySize=auto;html=1;" edge="1" parent="1" source="BpsWuVUO4pD3DxGXrb-u-11" target="GcYLmxMrVuPvOlCH0uSK-5">
          <mxGeometry relative="1" as="geometry" />
        </mxCell>
        <mxCell id="BpsWuVUO4pD3DxGXrb-u-11" value="case 3" style="rhombus;whiteSpace=wrap;html=1;" parent="1" vertex="1">
          <mxGeometry x="200" y="680" width="80" height="80" as="geometry" />
        </mxCell>
        <mxCell id="GcYLmxMrVuPvOlCH0uSK-7" value="" style="edgeStyle=orthogonalEdgeStyle;rounded=0;orthogonalLoop=1;jettySize=auto;html=1;" edge="1" parent="1" source="BpsWuVUO4pD3DxGXrb-u-12" target="GcYLmxMrVuPvOlCH0uSK-6">
          <mxGeometry relative="1" as="geometry" />
        </mxCell>
        <mxCell id="GcYLmxMrVuPvOlCH0uSK-21" value="" style="edgeStyle=orthogonalEdgeStyle;rounded=0;orthogonalLoop=1;jettySize=auto;html=1;" edge="1" parent="1" source="BpsWuVUO4pD3DxGXrb-u-12" target="GcYLmxMrVuPvOlCH0uSK-18">
          <mxGeometry relative="1" as="geometry" />
        </mxCell>
        <mxCell id="BpsWuVUO4pD3DxGXrb-u-12" value="case 4&amp;nbsp;" style="rhombus;whiteSpace=wrap;html=1;" parent="1" vertex="1">
          <mxGeometry x="200" y="790" width="80" height="80" as="geometry" />
        </mxCell>
        <mxCell id="GcYLmxMrVuPvOlCH0uSK-1" value="Update the depth value and display it." style="rounded=0;whiteSpace=wrap;html=1;" vertex="1" parent="1">
          <mxGeometry x="370" y="340" width="120" height="60" as="geometry" />
        </mxCell>
        <mxCell id="GcYLmxMrVuPvOlCH0uSK-3" value="Display the valve open porcentage." style="rounded=0;whiteSpace=wrap;html=1;" vertex="1" parent="1">
          <mxGeometry x="370" y="450" width="120" height="60" as="geometry" />
        </mxCell>
        <mxCell id="GcYLmxMrVuPvOlCH0uSK-4" value="Display the state of the pump." style="rounded=0;whiteSpace=wrap;html=1;" vertex="1" parent="1">
          <mxGeometry x="370" y="570" width="120" height="60" as="geometry" />
        </mxCell>
        <mxCell id="GcYLmxMrVuPvOlCH0uSK-5" value="Update the preassure value and display it." style="rounded=0;whiteSpace=wrap;html=1;" vertex="1" parent="1">
          <mxGeometry x="370" y="690" width="120" height="60" as="geometry" />
        </mxCell>
        <mxCell id="GcYLmxMrVuPvOlCH0uSK-6" value="Update the humidity value and display it." style="rounded=0;whiteSpace=wrap;html=1;" vertex="1" parent="1">
          <mxGeometry x="370" y="800" width="120" height="60" as="geometry" />
        </mxCell>
        <mxCell id="GcYLmxMrVuPvOlCH0uSK-11" value="Yes" style="text;html=1;align=center;verticalAlign=middle;resizable=0;points=[];autosize=1;strokeColor=none;fillColor=none;" vertex="1" parent="1">
          <mxGeometry x="280" y="350" width="40" height="20" as="geometry" />
        </mxCell>
        <mxCell id="GcYLmxMrVuPvOlCH0uSK-12" value="Yes" style="text;html=1;align=center;verticalAlign=middle;resizable=0;points=[];autosize=1;strokeColor=none;fillColor=none;" vertex="1" parent="1">
          <mxGeometry x="280" y="460" width="40" height="20" as="geometry" />
        </mxCell>
        <mxCell id="GcYLmxMrVuPvOlCH0uSK-13" value="Yes" style="text;html=1;align=center;verticalAlign=middle;resizable=0;points=[];autosize=1;strokeColor=none;fillColor=none;" vertex="1" parent="1">
          <mxGeometry x="280" y="575" width="40" height="20" as="geometry" />
        </mxCell>
        <mxCell id="GcYLmxMrVuPvOlCH0uSK-14" value="Yes" style="text;html=1;align=center;verticalAlign=middle;resizable=0;points=[];autosize=1;strokeColor=none;fillColor=none;" vertex="1" parent="1">
          <mxGeometry x="280" y="700" width="40" height="20" as="geometry" />
        </mxCell>
        <mxCell id="GcYLmxMrVuPvOlCH0uSK-15" value="Yes" style="text;html=1;align=center;verticalAlign=middle;resizable=0;points=[];autosize=1;strokeColor=none;fillColor=none;" vertex="1" parent="1">
          <mxGeometry x="280" y="810" width="40" height="20" as="geometry" />
        </mxCell>
        <mxCell id="GcYLmxMrVuPvOlCH0uSK-17" value="" style="edgeStyle=orthogonalEdgeStyle;rounded=0;orthogonalLoop=1;jettySize=auto;html=1;" edge="1" parent="1" source="GcYLmxMrVuPvOlCH0uSK-18" target="GcYLmxMrVuPvOlCH0uSK-19">
          <mxGeometry relative="1" as="geometry" />
        </mxCell>
        <mxCell id="GcYLmxMrVuPvOlCH0uSK-18" value="case 5&amp;nbsp;" style="rhombus;whiteSpace=wrap;html=1;" vertex="1" parent="1">
          <mxGeometry x="200" y="900" width="80" height="80" as="geometry" />
        </mxCell>
        <mxCell id="GcYLmxMrVuPvOlCH0uSK-19" value="Update the humidity value and display it." style="rounded=0;whiteSpace=wrap;html=1;" vertex="1" parent="1">
          <mxGeometry x="370" y="910" width="120" height="60" as="geometry" />
        </mxCell>
        <mxCell id="GcYLmxMrVuPvOlCH0uSK-20" value="Yes" style="text;html=1;align=center;verticalAlign=middle;resizable=0;points=[];autosize=1;strokeColor=none;fillColor=none;" vertex="1" parent="1">
          <mxGeometry x="280" y="920" width="40" height="20" as="geometry" />
        </mxCell>
        <mxCell id="GcYLmxMrVuPvOlCH0uSK-22" value="No" style="text;html=1;align=center;verticalAlign=middle;resizable=0;points=[];autosize=1;strokeColor=none;fillColor=none;" vertex="1" parent="1">
          <mxGeometry x="195" y="640" width="30" height="20" as="geometry" />
        </mxCell>
        <mxCell id="GcYLmxMrVuPvOlCH0uSK-23" value="No" style="text;html=1;align=center;verticalAlign=middle;resizable=0;points=[];autosize=1;strokeColor=none;fillColor=none;" vertex="1" parent="1">
          <mxGeometry x="185" y="770" width="30" height="20" as="geometry" />
        </mxCell>
        <mxCell id="GcYLmxMrVuPvOlCH0uSK-24" value="No" style="text;html=1;align=center;verticalAlign=middle;resizable=0;points=[];autosize=1;strokeColor=none;fillColor=none;" vertex="1" parent="1">
          <mxGeometry x="195" y="870" width="30" height="20" as="geometry" />
        </mxCell>
        <mxCell id="GcYLmxMrVuPvOlCH0uSK-25" value="No" style="text;html=1;align=center;verticalAlign=middle;resizable=0;points=[];autosize=1;strokeColor=none;fillColor=none;" vertex="1" parent="1">
          <mxGeometry x="195" y="520" width="30" height="20" as="geometry" />
        </mxCell>
        <mxCell id="GcYLmxMrVuPvOlCH0uSK-26" value="No" style="text;html=1;align=center;verticalAlign=middle;resizable=0;points=[];autosize=1;strokeColor=none;fillColor=none;" vertex="1" parent="1">
          <mxGeometry x="195" y="410" width="30" height="20" as="geometry" />
        </mxCell>
      </root>
    </mxGraphModel>
  </diagram>
</mxfile>
